Coordinates
version=1
nRows=19
nColumns=33
inDegrees=yes

Units are S.I. units (second, meters, Newtons, ...)
Angles are in degrees.

endheader
time	ground_thorax_rot_x	ground_thorax_rot_y	ground_thorax_rot_z	ground_thorax_tx	ground_thorax_ty	ground_thorax_tz	clav_prot_r	clav_elev_r	scapula_abduction_r	scapula_elevation_r	scapula_upward_rot_r	scapula_winging_r	shoulder_elv_r	plane_of_elev_r	axial_rot_r	elbow_flexion_r	pro_sup_r	wrist_flex_r	wrist_dev_r	clav_prot_l	clav_elev_l	scapula_abduction_l	scapula_elevation_l	scapula_upward_rot_l	scapula_winging_l	shoulder_elv_l	plane_of_elev_l	axial_rot_l	elbow_flexion_l	pro_sup_l	wrist_flex_l	wrist_dev_l
      5.64000000	     37.19578999	      4.10646332	      9.44310389	    -89.77914918	    790.13538437	     -1.66296316	     -0.31920573	     38.39703959	     45.00000000	     36.58729253	     20.58823575	  -3352.08170585	     60.39996390	     16.87043702	   -179.99999979	   1444.42824066	    -67.96838572	     16.07418735	     10.09589474	     11.46392358	    -45.00000000	    -45.00000000	     45.00000000	    -29.97072778	   2609.69827641	  -3890.47090867	     18.62444642	    -47.57946005	    366.18558751	     25.96421742	     10.45838738	    -19.56620930
      5.65000000	     37.24375535	      4.20978083	      9.84367997	    -95.38672707	    790.03685280	     -2.02614139	     -0.16634835	     38.68163810	     45.00000000	     36.86078743	     19.55750633	  -3352.41083996	     60.41641943	     16.95400898	   -179.99999979	   1444.43405585	    -66.73582853	     16.02922862	     10.08517047	     12.01268672	    -45.00000000	    -44.56020224	     45.00000000	    -31.25023581	   2610.06852971	  -3890.49556889	     18.60805538	    -48.50962763	    366.28698872	     25.87746749	     10.49803141	    -19.56851140
      5.66000000	     37.31841354	      4.61616599	     11.02799277	   -101.04230335	    790.04248706	     -2.39354945	      0.57814915	     39.34152558	     45.00000000	     37.06202253	     17.10560489	  -3351.98868114	     60.47377217	     16.98793793	   -179.99999979	   1444.41164421	    -65.28945941	     16.15537137	     10.00104606	     11.99887127	    -45.00000000	    -42.98205685	     45.00000000	    -34.19579693	   2609.81597589	  -3890.17036921	     18.52387701	    -48.46919614	    366.23034534	     25.66656684	     10.62300732	    -19.57919238
      5.67000000	     37.51089500	      5.07156069	     12.29064499	   -106.72385493	    790.16308225	     -2.76337357	      1.57880285	     39.70916455	     45.00000000	     37.58880968	     14.60845957	  -3351.50868800	     60.43768612	     16.78502471	   -179.99999979	   1444.30300955	    -64.03016196	     16.43024771	      9.83280129	     11.11607464	    -45.00000000	    -41.04939720	     45.00000000	    -37.61516945	   2609.45167307	  -3889.87022438	     18.59775102	    -48.29574032	    366.25132727	     25.52884782	     10.67941162	    -19.57805479
      5.68000000	     37.64212372	      5.37711176	     13.16453486	   -112.41370243	    790.40590153	     -3.13775714	      1.97738906	     40.28738655	     45.00000000	     38.03465746	     12.99423491	  -3351.44554610	     60.50130556	     16.71036782	   -179.99999979	   1444.33161887	    -63.05720343	     16.56991284	      9.77565314	     10.63522963	    -45.00000000	    -39.71155979	     45.00000000	    -39.77820409	   2609.41223725	  -3889.59998739	     18.41794816	    -48.74372051	    366.35459987	     25.62060313	     10.62182203	    -19.56922858
      5.69000000	     37.86376180	      5.65292318	     13.97397908	   -118.08422341	    790.77684523	     -3.51720424	      2.71207063	     40.61929446	     45.00000000	     38.53936422	     11.04554052	  -3351.27475069	     60.40723451	     16.74387670	   -179.99999979	   1444.31808050	    -62.20700843	     16.73182580	      9.70334168	     10.54042259	    -45.00000000	    -38.47768015	     45.00000000	    -42.02972822	   2609.42518968	  -3889.52875591	     18.46723544	    -49.15127347	    366.33550495	     25.80502575	     10.72821681	    -19.62270728
      5.70000000	     37.95770655	      5.90110186	     14.79809880	   -123.70748513	    791.27887872	     -3.90415642	      3.35868287	     41.05008430	     45.00000000	     38.90299804	      9.19081397	  -3351.08809489	     60.35693223	     16.74177168	   -179.99999979	   1444.30407066	    -61.35403458	     16.88091412	      9.62291534	     10.45888286	    -45.00000000	    -37.37659139	     45.00000000	    -44.15235768	   2609.60156878	  -3889.27350091	     18.45375005	    -49.53576833	    366.48054884	     26.05817716	     10.75807698	    -19.71296333
      5.71000000	     38.00175014	      5.96915350	     15.16697926	   -129.26578200	    791.91765740	     -4.29814386	      3.34466773	     41.44664754	     45.00000000	     39.18678729	      8.41245775	  -3351.21409966	     60.51466798	     16.64953904	   -179.99999979	   1444.36148180	    -60.73919524	     16.94290368	      9.61799157	     10.45388505	    -45.00000000	    -36.70839835	     45.00000000	    -45.00000000	   2609.74439629	  -3889.02099971	     18.00684645	    -50.52315607	    366.69441821	     26.49101229	     10.70170925	    -19.82090198
      5.72000000	     38.08968685	      5.78907504	     15.22329327	   -134.72428306	    792.69662937	     -4.69660238	      3.77832988	     41.45789990	     45.00000000	     39.38251439	      7.43781054	  -3351.19196830	     60.44708535	     16.69321942	   -179.99999979	   1444.39487929	    -60.08584532	     17.07966722	      9.56605632	     10.41156602	    -45.00000000	    -36.29176575	     45.00000000	    -45.00000000	   2610.20109483	  -3889.09980973	     17.75327036	    -51.51640642	    366.74403479	     27.00747800	     10.83958283	    -19.98225994
      5.73000000	     38.12639374	      5.64443099	     15.27203159	   -140.06447379	    793.61809690	     -5.09811543	      3.93668585	     41.58399924	     45.00000000	     39.56296275	      6.86981647	  -3351.29664009	     60.49285606	     16.67382630	   -179.99999979	   1444.47823984	    -59.49293660	     17.17631860	      9.54019347	     10.41417755	    -45.00000000	    -35.95662731	     45.00000000	    -45.00000000	   2610.62554903	  -3889.08906859	     17.39966996	    -52.60270425	    366.90526683	     27.55043334	     10.84740665	    -20.12031642
      5.74000000	     38.16383924	      5.49605437	     15.26584051	   -145.26101195	    794.68177987	     -5.49709625	      3.90753020	     41.77792177	     45.00000000	     39.75080093	      6.49513734	  -3351.50567090	     60.54547202	     16.63214122	   -179.99999979	   1444.50479872	    -59.01834802	     17.25865732	      9.51520305	     10.45000093	    -45.00000000	    -35.60043451	     45.00000000	    -45.00000000	   2610.84379834	  -3888.86434390	     16.89474198	    -53.87239921	    367.16013370	     28.14734763	     10.81535366	    -20.30837092
      5.75000000	     38.18650254	      5.40473733	     15.35334323	   -150.29156603	    795.88041315	     -5.89413675	      4.19164273	     41.81270338	     45.00000000	     39.92748722	      5.82592189	  -3351.62687364	     60.51502792	     16.63020553	   -179.99999979	   1444.54733122	    -58.71003209	     17.38219059	      9.46639164	     10.45092386	    -45.00000000	    -35.28021210	     45.00000000	    -45.00000000	   2611.33016199	  -3888.82147983	     16.60636569	    -55.07829258	    367.33718579	     28.75910957	     10.82874369	    -20.47579248
      5.76000000	     38.24535252	      5.28429141	     15.38751750	   -155.13561988	    797.20009914	     -6.29047575	      4.35352315	     41.96898065	     45.00000000	     40.12323977	      5.24438374	  -3351.65643085	     60.55363050	     16.61314305	   -179.99999979	   1444.65073925	    -58.47850259	     17.52083895	      9.42163627	     10.39762980	    -45.00000000	    -34.99630887	     45.00000000	    -45.00000000	   2611.71842831	  -3888.78224550	     16.28204522	    -56.05677777	    367.49344386	     29.39391512	     10.76780387	    -20.61074481
      5.77000000	     38.29754192	      5.14555535	     15.32589188	   -159.77080578	    798.62261802	     -6.69182011	      4.36490200	     42.08900411	     45.00000000	     40.34759185	      5.01503773	  -3351.94004139	     60.52877164	     16.61174991	   -179.99999979	   1444.68132328	    -58.45770220	     17.62067206	      9.40432572	     10.49359382	    -45.00000000	    -34.65740897	     45.00000000	    -45.00000000	   2612.02246960	  -3888.62382942	     15.98639731	    -57.28072674	    367.70751290	     30.06934686	     10.71264164	    -20.78954247
      5.78000000	     38.35589752	      5.06365692	     15.31889616	   -164.17489437	    800.11249047	     -7.09844994	      4.47653630	     42.20594296	     45.00000000	     40.56678686	      4.68169691	  -3352.08837583	     60.54535036	     16.56772103	   -179.99999979	   1444.76172840	    -58.43608237	     17.73475083	      9.37458279	     10.46432579	    -45.00000000	    -34.44140956	     45.00000000	    -45.00000000	   2612.41133816	  -3888.59429166	     15.72570651	    -58.16115532	    367.85721431	     30.73349432	     10.65408219	    -20.93020317
      5.79000000	     38.40379876	      4.97816269	     15.30138071	   -168.33854440	    801.66231358	     -7.51385792	      4.56062137	     42.32573855	     45.00000000	     40.71905471	      4.40863447	  -3352.23978117	     60.59801801	     16.56879464	   -179.99999979	   1444.84819786	    -58.53389979	     17.84007874	      9.36250312	     10.48174105	    -45.00000000	    -34.23795336	     45.00000000	    -45.00000000	   2612.81071666	  -3888.52046590	     15.47177284	    -59.15765190	    368.06786142	     31.38605368	     10.57211157	    -21.08172946
      5.80000000	     38.46770446	      4.96481362	     15.29560305	   -172.26031172	    803.27448987	     -7.93496157	      4.61730806	     42.40875166	     45.00000000	     40.95599039	      4.19565316	  -3352.42179009	     60.62806222	     16.50653664	   -179.99999979	   1444.95745833	    -58.69054245	     17.95176365	      9.34694443	     10.48385863	    -45.00000000	    -34.05631701	     45.00000000	    -45.00000000	   2613.12976695	  -3888.43657411	     15.20602114	    -59.98761429	    368.21823206	     32.00540206	     10.47810465	    -21.20706492
      5.81000000	     38.58910966	      4.87282233	     15.13985440	   -175.94790021	    804.96833004	     -8.35917441	      4.34839429	     42.46338857	     45.00000000	     41.22118446	      4.61473476	  -3352.87327393	     60.74380416	     16.53541887	   -179.99999979	   1445.16305308	    -59.02967933	     18.01909153	      9.43529280	     10.60260961	    -45.00000000	    -33.81110990	     45.00000000	    -45.00000000	   2613.32607531	  -3888.34936771	     14.97294254	    -61.18265121	    368.34612333	     32.55565353	     10.32550607	    -21.29867572
      5.82000000	     38.58102777	      4.84543361	     15.15903506	   -179.39887683	    806.72988963	     -8.77937796	      4.53552151	     42.61855054	     45.00000000	     41.33143023	      4.11983317	  -3352.83752827	     60.72822550	     16.48801615	   -179.99999979	   1445.21600516	    -59.44681703	     18.15921370	      9.35661204	     10.55067892	    -45.00000000	    -33.72436749	     45.00000000	    -45.00000000	   2613.73148534	  -3888.23224036	     14.72555810	    -61.78764535	    368.54290477	     33.02041984	     10.27130096	    -21.42287599
